<svg width="14" height="11" viewBox="0 0 14 11" fill="none" xmlns="http://www.w3.org/2000/svg">
<path d="M12.375 0.25H1.125C0.492188 0.25 0 0.765625 0 1.375V9.625C0 10.2578 0.492188 10.75 1.125 10.75H12.375C12.9844 10.75 13.5 10.2578 13.5 9.625V1.375C13.5 0.765625 12.9844 0.25 12.375 0.25ZM12.375 9.625H1.125V1.375H12.375V9.625ZM4.875 5.5C5.69531 5.5 6.375 4.84375 6.375 4C6.375 3.17969 5.69531 2.5 4.875 2.5C4.03125 2.5 3.375 3.17969 3.375 4C3.375 4.84375 4.03125 5.5 4.875 5.5ZM2.76562 8.5H6.96094C7.26562 8.5 7.5 8.3125 7.5 8.05469V7.60938C7.5 6.85938 6.77344 6.25 5.90625 6.25C5.67188 6.25 5.48438 6.4375 4.875 6.4375C4.24219 6.4375 4.07812 6.25 3.82031 6.25C2.95312 6.25 2.25 6.85938 2.25 7.60938V8.05469C2.25 8.3125 2.48438 8.5 2.76562 8.5ZM8.4375 7H11.0625C11.1562 7 11.25 6.92969 11.25 6.8125V6.4375C11.25 6.34375 11.1562 6.25 11.0625 6.25H8.4375C8.32031 6.25 8.25 6.34375 8.25 6.4375V6.8125C8.25 6.92969 8.32031 7 8.4375 7ZM8.4375 5.5H11.0625C11.1562 5.5 11.25 5.42969 11.25 5.3125V4.9375C11.25 4.84375 11.1562 4.75 11.0625 4.75H8.4375C8.32031 4.75 8.25 4.84375 8.25 4.9375V5.3125C8.25 5.42969 8.32031 5.5 8.4375 5.5ZM8.4375 4H11.0625C11.1562 4 11.25 3.92969 11.25 3.8125V3.4375C11.25 3.34375 11.1562 3.25 11.0625 3.25H8.4375C8.32031 3.25 8.25 3.34375 8.25 3.4375V3.8125C8.25 3.92969 8.32031 4 8.4375 4Z" fill="white"/>
</svg>
