<svg width="18" height="15" viewBox="0 0 18 15" fill="none" xmlns="http://www.w3.org/2000/svg">
<path d="M6.125 7.75C8.03906 7.75 9.625 6.19141 9.625 4.25C9.625 2.33594 8.03906 0.75 6.125 0.75C4.18359 0.75 2.625 2.33594 2.625 4.25C2.625 6.19141 4.18359 7.75 6.125 7.75ZM8.55859 8.625H8.09375C7.49219 8.92578 6.83594 9.0625 6.125 9.0625C5.41406 9.0625 4.73047 8.92578 4.12891 8.625H3.66406C1.64062 8.625 0 10.293 0 12.3164V13.4375C0 14.1758 0.574219 14.75 1.3125 14.75H8.80469C8.75 14.5859 8.72266 14.3672 8.75 14.1758L8.94141 12.5078L8.96875 12.207L9.1875 11.9883L11.293 9.88281C10.6367 9.11719 9.65234 8.625 8.55859 8.625ZM9.78906 12.6172L9.625 14.2852C9.59766 14.5586 9.81641 14.8047 10.0898 14.75L11.7578 14.5859L15.5312 10.8125L13.5625 8.84375L9.78906 12.6172ZM17.3086 8.10547L16.2695 7.06641C15.9961 6.82031 15.5859 6.82031 15.3398 7.06641L14.3008 8.10547L14.1914 8.21484L16.1602 10.1836L17.3086 9.03516C17.5547 8.78906 17.5547 8.37891 17.3086 8.10547Z" fill="#4159AF"/>
</svg>
