<svg width="12" height="10" viewBox="0 0 12 10" fill="none" xmlns="http://www.w3.org/2000/svg">
<path d="M11.6484 4.89844C11.8594 4.6875 11.8594 4.33594 11.6484 4.10156L7.71094 0.164062C7.33594 -0.1875 6.75 0.0703125 6.75 0.5625V2.8125H3.5625C3.23438 2.8125 3 3.07031 3 3.375V5.625C3 5.95312 3.23438 6.1875 3.5625 6.1875H6.75V8.4375C6.75 8.95312 7.35938 9.1875 7.71094 8.83594L11.6484 4.89844ZM4.5 8.71875V7.78125C4.5 7.64062 4.35938 7.5 4.21875 7.5H2.25C1.82812 7.5 1.5 7.17188 1.5 6.75V2.25C1.5 1.85156 1.82812 1.5 2.25 1.5H4.21875C4.35938 1.5 4.5 1.38281 4.5 1.21875V0.28125C4.5 0.140625 4.35938 0 4.21875 0H2.25C1.00781 0 0 1.00781 0 2.25V6.75C0 7.99219 1.00781 9 2.25 9H4.21875C4.35938 9 4.5 8.88281 4.5 8.71875Z" fill="white"/>
</svg>
