<svg width="27" height="31" viewBox="0 0 27 31" fill="none" xmlns="http://www.w3.org/2000/svg">
<path d="M23.4375 15.75H8.90625V9.71484C8.90625 7.42969 10.7227 5.49609 13.0664 5.4375C15.4102 5.4375 17.3438 7.37109 17.3438 9.65625V10.5938C17.3438 11.4141 17.9297 12 18.75 12H20.625C21.3867 12 22.0312 11.4141 22.0312 10.5938V9.65625C22.0312 4.73438 17.9883 0.75 13.0664 0.75C8.14453 0.808594 4.21875 4.85156 4.21875 9.77344V15.75H2.8125C1.23047 15.75 0 17.0391 0 18.5625V27.9375C0 29.5195 1.23047 30.75 2.8125 30.75H23.4375C24.9609 30.75 26.25 29.5195 26.25 27.9375V18.5625C26.25 17.0391 24.9609 15.75 23.4375 15.75Z" fill="#003DB5"/>
</svg>
